<mxfile host="Electron" modified="2024-05-14T14:02:19.736Z" agent="Mozilla/5.0 (Windows NT 10.0; Win64; x64) AppleWebKit/537.36 (KHTML, like Gecko) draw.io/21.2.8 Chrome/112.0.5615.165 Electron/24.2.0 Safari/537.36" etag="fh-qku_EgtqZK1pv34GR" version="21.2.8" type="device">
  <diagram name="Страница 1" id="Urx2B4yr2qLb3wUdU0Nw">
    <mxGraphModel dx="2593" dy="2674" grid="1" gridSize="10" guides="1" tooltips="1" connect="1" arrows="1" fold="1" page="1" pageScale="1" pageWidth="827" pageHeight="1169" math="0" shadow="0">
      <root>
        <mxCell id="0" />
        <mxCell id="1" parent="0" />
        <mxCell id="ujHl2vr5YIRKrzk3pM5S-1" value="&lt;font style=&quot;font-size: 16px;&quot;&gt;users&lt;/font&gt;" style="swimlane;fontStyle=0;childLayout=stackLayout;horizontal=1;startSize=30;horizontalStack=0;resizeParent=1;resizeParentMax=0;resizeLast=0;collapsible=1;marginBottom=0;whiteSpace=wrap;html=1;" vertex="1" parent="1">
          <mxGeometry x="700" y="310" width="140" height="420" as="geometry" />
        </mxCell>
        <mxCell id="ujHl2vr5YIRKrzk3pM5S-2" value="&lt;font style=&quot;font-size: 14px;&quot;&gt;id&lt;/font&gt;" style="text;strokeColor=none;fillColor=none;align=left;verticalAlign=middle;spacingLeft=4;spacingRight=4;overflow=hidden;points=[[0,0.5],[1,0.5]];portConstraint=eastwest;rotatable=0;whiteSpace=wrap;html=1;" vertex="1" parent="ujHl2vr5YIRKrzk3pM5S-1">
          <mxGeometry y="30" width="140" height="30" as="geometry" />
        </mxCell>
        <mxCell id="ujHl2vr5YIRKrzk3pM5S-3" value="&lt;font style=&quot;font-size: 14px;&quot;&gt;first_name&lt;/font&gt;" style="text;strokeColor=none;fillColor=none;align=left;verticalAlign=middle;spacingLeft=4;spacingRight=4;overflow=hidden;points=[[0,0.5],[1,0.5]];portConstraint=eastwest;rotatable=0;whiteSpace=wrap;html=1;" vertex="1" parent="ujHl2vr5YIRKrzk3pM5S-1">
          <mxGeometry y="60" width="140" height="30" as="geometry" />
        </mxCell>
        <mxCell id="ujHl2vr5YIRKrzk3pM5S-4" value="&lt;font style=&quot;font-size: 14px;&quot;&gt;last_name&lt;/font&gt;" style="text;strokeColor=none;fillColor=none;align=left;verticalAlign=middle;spacingLeft=4;spacingRight=4;overflow=hidden;points=[[0,0.5],[1,0.5]];portConstraint=eastwest;rotatable=0;whiteSpace=wrap;html=1;" vertex="1" parent="ujHl2vr5YIRKrzk3pM5S-1">
          <mxGeometry y="90" width="140" height="30" as="geometry" />
        </mxCell>
        <mxCell id="ujHl2vr5YIRKrzk3pM5S-5" value="&lt;font style=&quot;font-size: 14px;&quot;&gt;password&lt;/font&gt;" style="text;strokeColor=none;fillColor=none;align=left;verticalAlign=middle;spacingLeft=4;spacingRight=4;overflow=hidden;points=[[0,0.5],[1,0.5]];portConstraint=eastwest;rotatable=0;whiteSpace=wrap;html=1;" vertex="1" parent="ujHl2vr5YIRKrzk3pM5S-1">
          <mxGeometry y="120" width="140" height="30" as="geometry" />
        </mxCell>
        <mxCell id="ujHl2vr5YIRKrzk3pM5S-6" value="&lt;font style=&quot;font-size: 14px;&quot;&gt;is_staff&lt;/font&gt;" style="text;strokeColor=none;fillColor=none;align=left;verticalAlign=middle;spacingLeft=4;spacingRight=4;overflow=hidden;points=[[0,0.5],[1,0.5]];portConstraint=eastwest;rotatable=0;whiteSpace=wrap;html=1;" vertex="1" parent="ujHl2vr5YIRKrzk3pM5S-1">
          <mxGeometry y="150" width="140" height="30" as="geometry" />
        </mxCell>
        <mxCell id="ujHl2vr5YIRKrzk3pM5S-7" value="&lt;font style=&quot;font-size: 14px;&quot;&gt;email&lt;/font&gt;" style="text;strokeColor=none;fillColor=none;align=left;verticalAlign=middle;spacingLeft=4;spacingRight=4;overflow=hidden;points=[[0,0.5],[1,0.5]];portConstraint=eastwest;rotatable=0;whiteSpace=wrap;html=1;" vertex="1" parent="ujHl2vr5YIRKrzk3pM5S-1">
          <mxGeometry y="180" width="140" height="30" as="geometry" />
        </mxCell>
        <mxCell id="ujHl2vr5YIRKrzk3pM5S-8" value="&lt;font style=&quot;font-size: 14px;&quot;&gt;phone&lt;/font&gt;" style="text;strokeColor=none;fillColor=none;align=left;verticalAlign=middle;spacingLeft=4;spacingRight=4;overflow=hidden;points=[[0,0.5],[1,0.5]];portConstraint=eastwest;rotatable=0;whiteSpace=wrap;html=1;" vertex="1" parent="ujHl2vr5YIRKrzk3pM5S-1">
          <mxGeometry y="210" width="140" height="30" as="geometry" />
        </mxCell>
        <mxCell id="ujHl2vr5YIRKrzk3pM5S-9" value="&lt;font style=&quot;font-size: 14px;&quot;&gt;group_id&lt;/font&gt;" style="text;strokeColor=none;fillColor=none;align=left;verticalAlign=middle;spacingLeft=4;spacingRight=4;overflow=hidden;points=[[0,0.5],[1,0.5]];portConstraint=eastwest;rotatable=0;whiteSpace=wrap;html=1;" vertex="1" parent="ujHl2vr5YIRKrzk3pM5S-1">
          <mxGeometry y="240" width="140" height="30" as="geometry" />
        </mxCell>
        <mxCell id="ujHl2vr5YIRKrzk3pM5S-10" value="&lt;font style=&quot;font-size: 14px;&quot;&gt;birthday&lt;/font&gt;" style="text;strokeColor=none;fillColor=none;align=left;verticalAlign=middle;spacingLeft=4;spacingRight=4;overflow=hidden;points=[[0,0.5],[1,0.5]];portConstraint=eastwest;rotatable=0;whiteSpace=wrap;html=1;" vertex="1" parent="ujHl2vr5YIRKrzk3pM5S-1">
          <mxGeometry y="270" width="140" height="30" as="geometry" />
        </mxCell>
        <mxCell id="ujHl2vr5YIRKrzk3pM5S-11" value="&lt;font style=&quot;font-size: 14px;&quot;&gt;address&lt;/font&gt;" style="text;strokeColor=none;fillColor=none;align=left;verticalAlign=middle;spacingLeft=4;spacingRight=4;overflow=hidden;points=[[0,0.5],[1,0.5]];portConstraint=eastwest;rotatable=0;whiteSpace=wrap;html=1;" vertex="1" parent="ujHl2vr5YIRKrzk3pM5S-1">
          <mxGeometry y="300" width="140" height="30" as="geometry" />
        </mxCell>
        <mxCell id="ujHl2vr5YIRKrzk3pM5S-12" value="&lt;font style=&quot;font-size: 14px;&quot;&gt;user_photo&lt;/font&gt;" style="text;strokeColor=none;fillColor=none;align=left;verticalAlign=middle;spacingLeft=4;spacingRight=4;overflow=hidden;points=[[0,0.5],[1,0.5]];portConstraint=eastwest;rotatable=0;whiteSpace=wrap;html=1;" vertex="1" parent="ujHl2vr5YIRKrzk3pM5S-1">
          <mxGeometry y="330" width="140" height="30" as="geometry" />
        </mxCell>
        <mxCell id="ujHl2vr5YIRKrzk3pM5S-13" value="&lt;font style=&quot;font-size: 14px;&quot;&gt;term&lt;/font&gt;" style="text;strokeColor=none;fillColor=none;align=left;verticalAlign=middle;spacingLeft=4;spacingRight=4;overflow=hidden;points=[[0,0.5],[1,0.5]];portConstraint=eastwest;rotatable=0;whiteSpace=wrap;html=1;" vertex="1" parent="ujHl2vr5YIRKrzk3pM5S-1">
          <mxGeometry y="360" width="140" height="30" as="geometry" />
        </mxCell>
        <mxCell id="ujHl2vr5YIRKrzk3pM5S-14" value="&lt;font style=&quot;font-size: 14px;&quot;&gt;slug&lt;/font&gt;" style="text;strokeColor=none;fillColor=none;align=left;verticalAlign=middle;spacingLeft=4;spacingRight=4;overflow=hidden;points=[[0,0.5],[1,0.5]];portConstraint=eastwest;rotatable=0;whiteSpace=wrap;html=1;" vertex="1" parent="ujHl2vr5YIRKrzk3pM5S-1">
          <mxGeometry y="390" width="140" height="30" as="geometry" />
        </mxCell>
        <mxCell id="ujHl2vr5YIRKrzk3pM5S-15" value="&lt;font style=&quot;font-size: 16px;&quot;&gt;group&lt;/font&gt;" style="swimlane;fontStyle=0;childLayout=stackLayout;horizontal=1;startSize=30;horizontalStack=0;resizeParent=1;resizeParentMax=0;resizeLast=0;collapsible=1;marginBottom=0;whiteSpace=wrap;html=1;" vertex="1" parent="1">
          <mxGeometry x="920" y="600" width="140" height="180" as="geometry" />
        </mxCell>
        <mxCell id="ujHl2vr5YIRKrzk3pM5S-16" value="&lt;font style=&quot;font-size: 14px;&quot;&gt;id&lt;/font&gt;" style="text;strokeColor=none;fillColor=none;align=left;verticalAlign=middle;spacingLeft=4;spacingRight=4;overflow=hidden;points=[[0,0.5],[1,0.5]];portConstraint=eastwest;rotatable=0;whiteSpace=wrap;html=1;" vertex="1" parent="ujHl2vr5YIRKrzk3pM5S-15">
          <mxGeometry y="30" width="140" height="30" as="geometry" />
        </mxCell>
        <mxCell id="ujHl2vr5YIRKrzk3pM5S-17" value="&lt;font style=&quot;font-size: 14px;&quot;&gt;name&lt;/font&gt;" style="text;strokeColor=none;fillColor=none;align=left;verticalAlign=middle;spacingLeft=4;spacingRight=4;overflow=hidden;points=[[0,0.5],[1,0.5]];portConstraint=eastwest;rotatable=0;whiteSpace=wrap;html=1;" vertex="1" parent="ujHl2vr5YIRKrzk3pM5S-15">
          <mxGeometry y="60" width="140" height="30" as="geometry" />
        </mxCell>
        <mxCell id="ujHl2vr5YIRKrzk3pM5S-18" value="&lt;span style=&quot;font-size: 14px;&quot;&gt;sudy_plan_name&lt;/span&gt;" style="text;strokeColor=none;fillColor=none;align=left;verticalAlign=middle;spacingLeft=4;spacingRight=4;overflow=hidden;points=[[0,0.5],[1,0.5]];portConstraint=eastwest;rotatable=0;whiteSpace=wrap;html=1;" vertex="1" parent="ujHl2vr5YIRKrzk3pM5S-15">
          <mxGeometry y="90" width="140" height="30" as="geometry" />
        </mxCell>
        <mxCell id="ujHl2vr5YIRKrzk3pM5S-19" value="&lt;font style=&quot;font-size: 14px;&quot;&gt;curs&lt;/font&gt;" style="text;strokeColor=none;fillColor=none;align=left;verticalAlign=middle;spacingLeft=4;spacingRight=4;overflow=hidden;points=[[0,0.5],[1,0.5]];portConstraint=eastwest;rotatable=0;whiteSpace=wrap;html=1;" vertex="1" parent="ujHl2vr5YIRKrzk3pM5S-15">
          <mxGeometry y="120" width="140" height="30" as="geometry" />
        </mxCell>
        <mxCell id="ujHl2vr5YIRKrzk3pM5S-20" value="&lt;font style=&quot;font-size: 14px;&quot;&gt;slug&lt;/font&gt;" style="text;strokeColor=none;fillColor=none;align=left;verticalAlign=middle;spacingLeft=4;spacingRight=4;overflow=hidden;points=[[0,0.5],[1,0.5]];portConstraint=eastwest;rotatable=0;whiteSpace=wrap;html=1;" vertex="1" parent="ujHl2vr5YIRKrzk3pM5S-15">
          <mxGeometry y="150" width="140" height="30" as="geometry" />
        </mxCell>
        <mxCell id="ujHl2vr5YIRKrzk3pM5S-22" value="&lt;font style=&quot;font-size: 16px;&quot;&gt;subject&lt;/font&gt;" style="swimlane;fontStyle=0;childLayout=stackLayout;horizontal=1;startSize=30;horizontalStack=0;resizeParent=1;resizeParentMax=0;resizeLast=0;collapsible=1;marginBottom=0;whiteSpace=wrap;html=1;" vertex="1" parent="1">
          <mxGeometry x="900" y="110" width="140" height="180" as="geometry" />
        </mxCell>
        <mxCell id="ujHl2vr5YIRKrzk3pM5S-23" value="&lt;font style=&quot;font-size: 14px;&quot;&gt;id&lt;/font&gt;" style="text;strokeColor=none;fillColor=none;align=left;verticalAlign=middle;spacingLeft=4;spacingRight=4;overflow=hidden;points=[[0,0.5],[1,0.5]];portConstraint=eastwest;rotatable=0;whiteSpace=wrap;html=1;" vertex="1" parent="ujHl2vr5YIRKrzk3pM5S-22">
          <mxGeometry y="30" width="140" height="30" as="geometry" />
        </mxCell>
        <mxCell id="ujHl2vr5YIRKrzk3pM5S-24" value="&lt;font style=&quot;font-size: 14px;&quot;&gt;subject_name&lt;/font&gt;" style="text;strokeColor=none;fillColor=none;align=left;verticalAlign=middle;spacingLeft=4;spacingRight=4;overflow=hidden;points=[[0,0.5],[1,0.5]];portConstraint=eastwest;rotatable=0;whiteSpace=wrap;html=1;" vertex="1" parent="ujHl2vr5YIRKrzk3pM5S-22">
          <mxGeometry y="60" width="140" height="30" as="geometry" />
        </mxCell>
        <mxCell id="ujHl2vr5YIRKrzk3pM5S-25" value="&lt;span style=&quot;font-size: 14px;&quot;&gt;subject_code&lt;/span&gt;" style="text;strokeColor=none;fillColor=none;align=left;verticalAlign=middle;spacingLeft=4;spacingRight=4;overflow=hidden;points=[[0,0.5],[1,0.5]];portConstraint=eastwest;rotatable=0;whiteSpace=wrap;html=1;" vertex="1" parent="ujHl2vr5YIRKrzk3pM5S-22">
          <mxGeometry y="90" width="140" height="30" as="geometry" />
        </mxCell>
        <mxCell id="ujHl2vr5YIRKrzk3pM5S-26" value="&lt;font style=&quot;font-size: 14px;&quot;&gt;description&amp;nbsp;&lt;/font&gt;" style="text;strokeColor=none;fillColor=none;align=left;verticalAlign=middle;spacingLeft=4;spacingRight=4;overflow=hidden;points=[[0,0.5],[1,0.5]];portConstraint=eastwest;rotatable=0;whiteSpace=wrap;html=1;" vertex="1" parent="ujHl2vr5YIRKrzk3pM5S-22">
          <mxGeometry y="120" width="140" height="30" as="geometry" />
        </mxCell>
        <mxCell id="ujHl2vr5YIRKrzk3pM5S-27" value="&lt;font style=&quot;font-size: 14px;&quot;&gt;slug&lt;/font&gt;" style="text;strokeColor=none;fillColor=none;align=left;verticalAlign=middle;spacingLeft=4;spacingRight=4;overflow=hidden;points=[[0,0.5],[1,0.5]];portConstraint=eastwest;rotatable=0;whiteSpace=wrap;html=1;" vertex="1" parent="ujHl2vr5YIRKrzk3pM5S-22">
          <mxGeometry y="150" width="140" height="30" as="geometry" />
        </mxCell>
        <mxCell id="ujHl2vr5YIRKrzk3pM5S-28" value="&lt;font style=&quot;font-size: 16px;&quot;&gt;lecturer&lt;/font&gt;" style="swimlane;fontStyle=0;childLayout=stackLayout;horizontal=1;startSize=30;horizontalStack=0;resizeParent=1;resizeParentMax=0;resizeLast=0;collapsible=1;marginBottom=0;whiteSpace=wrap;html=1;" vertex="1" parent="1">
          <mxGeometry x="1030" y="360" width="140" height="150" as="geometry" />
        </mxCell>
        <mxCell id="ujHl2vr5YIRKrzk3pM5S-29" value="&lt;font style=&quot;font-size: 14px;&quot;&gt;id&lt;/font&gt;" style="text;strokeColor=none;fillColor=none;align=left;verticalAlign=middle;spacingLeft=4;spacingRight=4;overflow=hidden;points=[[0,0.5],[1,0.5]];portConstraint=eastwest;rotatable=0;whiteSpace=wrap;html=1;" vertex="1" parent="ujHl2vr5YIRKrzk3pM5S-28">
          <mxGeometry y="30" width="140" height="30" as="geometry" />
        </mxCell>
        <mxCell id="ujHl2vr5YIRKrzk3pM5S-30" value="&lt;font style=&quot;font-size: 14px;&quot;&gt;user_id&lt;/font&gt;" style="text;strokeColor=none;fillColor=none;align=left;verticalAlign=middle;spacingLeft=4;spacingRight=4;overflow=hidden;points=[[0,0.5],[1,0.5]];portConstraint=eastwest;rotatable=0;whiteSpace=wrap;html=1;" vertex="1" parent="ujHl2vr5YIRKrzk3pM5S-28">
          <mxGeometry y="60" width="140" height="30" as="geometry" />
        </mxCell>
        <mxCell id="ujHl2vr5YIRKrzk3pM5S-31" value="&lt;span style=&quot;font-size: 14px;&quot;&gt;groups&amp;nbsp;&lt;/span&gt;" style="text;strokeColor=none;fillColor=none;align=left;verticalAlign=middle;spacingLeft=4;spacingRight=4;overflow=hidden;points=[[0,0.5],[1,0.5]];portConstraint=eastwest;rotatable=0;whiteSpace=wrap;html=1;" vertex="1" parent="ujHl2vr5YIRKrzk3pM5S-28">
          <mxGeometry y="90" width="140" height="30" as="geometry" />
        </mxCell>
        <mxCell id="ujHl2vr5YIRKrzk3pM5S-32" value="&lt;font style=&quot;font-size: 14px;&quot;&gt;subjects&lt;/font&gt;" style="text;strokeColor=none;fillColor=none;align=left;verticalAlign=middle;spacingLeft=4;spacingRight=4;overflow=hidden;points=[[0,0.5],[1,0.5]];portConstraint=eastwest;rotatable=0;whiteSpace=wrap;html=1;" vertex="1" parent="ujHl2vr5YIRKrzk3pM5S-28">
          <mxGeometry y="120" width="140" height="30" as="geometry" />
        </mxCell>
        <mxCell id="ujHl2vr5YIRKrzk3pM5S-36" value="&lt;font style=&quot;font-size: 16px;&quot;&gt;student_scores&lt;/font&gt;" style="swimlane;fontStyle=0;childLayout=stackLayout;horizontal=1;startSize=30;horizontalStack=0;resizeParent=1;resizeParentMax=0;resizeLast=0;collapsible=1;marginBottom=0;whiteSpace=wrap;html=1;" vertex="1" parent="1">
          <mxGeometry x="1300" y="555" width="140" height="270" as="geometry" />
        </mxCell>
        <mxCell id="ujHl2vr5YIRKrzk3pM5S-37" value="&lt;font style=&quot;font-size: 14px;&quot;&gt;id&lt;/font&gt;" style="text;strokeColor=none;fillColor=none;align=left;verticalAlign=middle;spacingLeft=4;spacingRight=4;overflow=hidden;points=[[0,0.5],[1,0.5]];portConstraint=eastwest;rotatable=0;whiteSpace=wrap;html=1;" vertex="1" parent="ujHl2vr5YIRKrzk3pM5S-36">
          <mxGeometry y="30" width="140" height="30" as="geometry" />
        </mxCell>
        <mxCell id="ujHl2vr5YIRKrzk3pM5S-38" value="&lt;font style=&quot;font-size: 14px;&quot;&gt;student_id&lt;/font&gt;" style="text;strokeColor=none;fillColor=none;align=left;verticalAlign=middle;spacingLeft=4;spacingRight=4;overflow=hidden;points=[[0,0.5],[1,0.5]];portConstraint=eastwest;rotatable=0;whiteSpace=wrap;html=1;" vertex="1" parent="ujHl2vr5YIRKrzk3pM5S-36">
          <mxGeometry y="60" width="140" height="30" as="geometry" />
        </mxCell>
        <mxCell id="ujHl2vr5YIRKrzk3pM5S-39" value="&lt;span style=&quot;font-size: 14px;&quot;&gt;subject_id&lt;/span&gt;" style="text;strokeColor=none;fillColor=none;align=left;verticalAlign=middle;spacingLeft=4;spacingRight=4;overflow=hidden;points=[[0,0.5],[1,0.5]];portConstraint=eastwest;rotatable=0;whiteSpace=wrap;html=1;" vertex="1" parent="ujHl2vr5YIRKrzk3pM5S-36">
          <mxGeometry y="90" width="140" height="30" as="geometry" />
        </mxCell>
        <mxCell id="ujHl2vr5YIRKrzk3pM5S-40" value="&lt;font style=&quot;font-size: 14px;&quot;&gt;lecturer_id&lt;/font&gt;" style="text;strokeColor=none;fillColor=none;align=left;verticalAlign=middle;spacingLeft=4;spacingRight=4;overflow=hidden;points=[[0,0.5],[1,0.5]];portConstraint=eastwest;rotatable=0;whiteSpace=wrap;html=1;" vertex="1" parent="ujHl2vr5YIRKrzk3pM5S-36">
          <mxGeometry y="120" width="140" height="30" as="geometry" />
        </mxCell>
        <mxCell id="ujHl2vr5YIRKrzk3pM5S-41" value="&lt;font style=&quot;font-size: 14px;&quot;&gt;cause&lt;/font&gt;" style="text;strokeColor=none;fillColor=none;align=left;verticalAlign=middle;spacingLeft=4;spacingRight=4;overflow=hidden;points=[[0,0.5],[1,0.5]];portConstraint=eastwest;rotatable=0;whiteSpace=wrap;html=1;" vertex="1" parent="ujHl2vr5YIRKrzk3pM5S-36">
          <mxGeometry y="150" width="140" height="30" as="geometry" />
        </mxCell>
        <mxCell id="ujHl2vr5YIRKrzk3pM5S-42" value="&lt;font style=&quot;font-size: 14px;&quot;&gt;points&lt;/font&gt;" style="text;strokeColor=none;fillColor=none;align=left;verticalAlign=middle;spacingLeft=4;spacingRight=4;overflow=hidden;points=[[0,0.5],[1,0.5]];portConstraint=eastwest;rotatable=0;whiteSpace=wrap;html=1;" vertex="1" parent="ujHl2vr5YIRKrzk3pM5S-36">
          <mxGeometry y="180" width="140" height="30" as="geometry" />
        </mxCell>
        <mxCell id="ujHl2vr5YIRKrzk3pM5S-43" value="&lt;font style=&quot;font-size: 14px;&quot;&gt;description&lt;/font&gt;" style="text;strokeColor=none;fillColor=none;align=left;verticalAlign=middle;spacingLeft=4;spacingRight=4;overflow=hidden;points=[[0,0.5],[1,0.5]];portConstraint=eastwest;rotatable=0;whiteSpace=wrap;html=1;" vertex="1" parent="ujHl2vr5YIRKrzk3pM5S-36">
          <mxGeometry y="210" width="140" height="30" as="geometry" />
        </mxCell>
        <mxCell id="ujHl2vr5YIRKrzk3pM5S-44" value="&lt;font style=&quot;font-size: 14px;&quot;&gt;date&lt;/font&gt;" style="text;strokeColor=none;fillColor=none;align=left;verticalAlign=middle;spacingLeft=4;spacingRight=4;overflow=hidden;points=[[0,0.5],[1,0.5]];portConstraint=eastwest;rotatable=0;whiteSpace=wrap;html=1;" vertex="1" parent="ujHl2vr5YIRKrzk3pM5S-36">
          <mxGeometry y="240" width="140" height="30" as="geometry" />
        </mxCell>
        <mxCell id="ujHl2vr5YIRKrzk3pM5S-59" value="&lt;font style=&quot;font-size: 16px;&quot;&gt;exam_grades&lt;/font&gt;" style="swimlane;fontStyle=0;childLayout=stackLayout;horizontal=1;startSize=30;horizontalStack=0;resizeParent=1;resizeParentMax=0;resizeLast=0;collapsible=1;marginBottom=0;whiteSpace=wrap;html=1;" vertex="1" parent="1">
          <mxGeometry x="360" y="490" width="140" height="150" as="geometry" />
        </mxCell>
        <mxCell id="ujHl2vr5YIRKrzk3pM5S-60" value="&lt;font style=&quot;font-size: 14px;&quot;&gt;id&lt;/font&gt;" style="text;strokeColor=none;fillColor=none;align=left;verticalAlign=middle;spacingLeft=4;spacingRight=4;overflow=hidden;points=[[0,0.5],[1,0.5]];portConstraint=eastwest;rotatable=0;whiteSpace=wrap;html=1;" vertex="1" parent="ujHl2vr5YIRKrzk3pM5S-59">
          <mxGeometry y="30" width="140" height="30" as="geometry" />
        </mxCell>
        <mxCell id="ujHl2vr5YIRKrzk3pM5S-61" value="&lt;font style=&quot;font-size: 14px;&quot;&gt;user_id&lt;/font&gt;" style="text;strokeColor=none;fillColor=none;align=left;verticalAlign=middle;spacingLeft=4;spacingRight=4;overflow=hidden;points=[[0,0.5],[1,0.5]];portConstraint=eastwest;rotatable=0;whiteSpace=wrap;html=1;" vertex="1" parent="ujHl2vr5YIRKrzk3pM5S-59">
          <mxGeometry y="60" width="140" height="30" as="geometry" />
        </mxCell>
        <mxCell id="ujHl2vr5YIRKrzk3pM5S-62" value="&lt;span style=&quot;font-size: 14px;&quot;&gt;exam_id&lt;/span&gt;" style="text;strokeColor=none;fillColor=none;align=left;verticalAlign=middle;spacingLeft=4;spacingRight=4;overflow=hidden;points=[[0,0.5],[1,0.5]];portConstraint=eastwest;rotatable=0;whiteSpace=wrap;html=1;" vertex="1" parent="ujHl2vr5YIRKrzk3pM5S-59">
          <mxGeometry y="90" width="140" height="30" as="geometry" />
        </mxCell>
        <mxCell id="ujHl2vr5YIRKrzk3pM5S-63" value="&lt;font style=&quot;font-size: 14px;&quot;&gt;points&lt;/font&gt;" style="text;strokeColor=none;fillColor=none;align=left;verticalAlign=middle;spacingLeft=4;spacingRight=4;overflow=hidden;points=[[0,0.5],[1,0.5]];portConstraint=eastwest;rotatable=0;whiteSpace=wrap;html=1;" vertex="1" parent="ujHl2vr5YIRKrzk3pM5S-59">
          <mxGeometry y="120" width="140" height="30" as="geometry" />
        </mxCell>
        <mxCell id="ujHl2vr5YIRKrzk3pM5S-64" value="&lt;font style=&quot;font-size: 16px;&quot;&gt;overall_performance&amp;nbsp;&lt;/font&gt;" style="swimlane;fontStyle=0;childLayout=stackLayout;horizontal=1;startSize=30;horizontalStack=0;resizeParent=1;resizeParentMax=0;resizeLast=0;collapsible=1;marginBottom=0;whiteSpace=wrap;html=1;" vertex="1" parent="1">
          <mxGeometry x="1200" y="880" width="150" height="210" as="geometry" />
        </mxCell>
        <mxCell id="ujHl2vr5YIRKrzk3pM5S-65" value="&lt;font style=&quot;font-size: 14px;&quot;&gt;id&lt;/font&gt;" style="text;strokeColor=none;fillColor=none;align=left;verticalAlign=middle;spacingLeft=4;spacingRight=4;overflow=hidden;points=[[0,0.5],[1,0.5]];portConstraint=eastwest;rotatable=0;whiteSpace=wrap;html=1;" vertex="1" parent="ujHl2vr5YIRKrzk3pM5S-64">
          <mxGeometry y="30" width="150" height="30" as="geometry" />
        </mxCell>
        <mxCell id="ujHl2vr5YIRKrzk3pM5S-66" value="&lt;font style=&quot;font-size: 14px;&quot;&gt;student_id&lt;/font&gt;" style="text;strokeColor=none;fillColor=none;align=left;verticalAlign=middle;spacingLeft=4;spacingRight=4;overflow=hidden;points=[[0,0.5],[1,0.5]];portConstraint=eastwest;rotatable=0;whiteSpace=wrap;html=1;" vertex="1" parent="ujHl2vr5YIRKrzk3pM5S-64">
          <mxGeometry y="60" width="150" height="30" as="geometry" />
        </mxCell>
        <mxCell id="ujHl2vr5YIRKrzk3pM5S-67" value="&lt;span style=&quot;font-size: 14px;&quot;&gt;exam_id&lt;/span&gt;" style="text;strokeColor=none;fillColor=none;align=left;verticalAlign=middle;spacingLeft=4;spacingRight=4;overflow=hidden;points=[[0,0.5],[1,0.5]];portConstraint=eastwest;rotatable=0;whiteSpace=wrap;html=1;" vertex="1" parent="ujHl2vr5YIRKrzk3pM5S-64">
          <mxGeometry y="90" width="150" height="30" as="geometry" />
        </mxCell>
        <mxCell id="ujHl2vr5YIRKrzk3pM5S-68" value="&lt;font style=&quot;font-size: 14px;&quot;&gt;student_scores&lt;/font&gt;" style="text;strokeColor=none;fillColor=none;align=left;verticalAlign=middle;spacingLeft=4;spacingRight=4;overflow=hidden;points=[[0,0.5],[1,0.5]];portConstraint=eastwest;rotatable=0;whiteSpace=wrap;html=1;" vertex="1" parent="ujHl2vr5YIRKrzk3pM5S-64">
          <mxGeometry y="120" width="150" height="30" as="geometry" />
        </mxCell>
        <mxCell id="ujHl2vr5YIRKrzk3pM5S-70" value="&lt;font style=&quot;font-size: 14px;&quot;&gt;exam_grades&lt;/font&gt;" style="text;strokeColor=none;fillColor=none;align=left;verticalAlign=middle;spacingLeft=4;spacingRight=4;overflow=hidden;points=[[0,0.5],[1,0.5]];portConstraint=eastwest;rotatable=0;whiteSpace=wrap;html=1;" vertex="1" parent="ujHl2vr5YIRKrzk3pM5S-64">
          <mxGeometry y="150" width="150" height="30" as="geometry" />
        </mxCell>
        <mxCell id="ujHl2vr5YIRKrzk3pM5S-71" value="&lt;font style=&quot;font-size: 14px;&quot;&gt;overall_points&lt;/font&gt;" style="text;strokeColor=none;fillColor=none;align=left;verticalAlign=middle;spacingLeft=4;spacingRight=4;overflow=hidden;points=[[0,0.5],[1,0.5]];portConstraint=eastwest;rotatable=0;whiteSpace=wrap;html=1;" vertex="1" parent="ujHl2vr5YIRKrzk3pM5S-64">
          <mxGeometry y="180" width="150" height="30" as="geometry" />
        </mxCell>
        <mxCell id="ujHl2vr5YIRKrzk3pM5S-72" value="&lt;font style=&quot;font-size: 16px;&quot;&gt;quest&lt;/font&gt;" style="swimlane;fontStyle=0;childLayout=stackLayout;horizontal=1;startSize=30;horizontalStack=0;resizeParent=1;resizeParentMax=0;resizeLast=0;collapsible=1;marginBottom=0;whiteSpace=wrap;html=1;" vertex="1" parent="1">
          <mxGeometry x="960" y="835" width="140" height="300" as="geometry" />
        </mxCell>
        <mxCell id="ujHl2vr5YIRKrzk3pM5S-73" value="&lt;font style=&quot;font-size: 14px;&quot;&gt;id&lt;/font&gt;" style="text;strokeColor=none;fillColor=none;align=left;verticalAlign=middle;spacingLeft=4;spacingRight=4;overflow=hidden;points=[[0,0.5],[1,0.5]];portConstraint=eastwest;rotatable=0;whiteSpace=wrap;html=1;" vertex="1" parent="ujHl2vr5YIRKrzk3pM5S-72">
          <mxGeometry y="30" width="140" height="30" as="geometry" />
        </mxCell>
        <mxCell id="ujHl2vr5YIRKrzk3pM5S-74" value="&lt;font style=&quot;font-size: 14px;&quot;&gt;quest_name&lt;/font&gt;" style="text;strokeColor=none;fillColor=none;align=left;verticalAlign=middle;spacingLeft=4;spacingRight=4;overflow=hidden;points=[[0,0.5],[1,0.5]];portConstraint=eastwest;rotatable=0;whiteSpace=wrap;html=1;" vertex="1" parent="ujHl2vr5YIRKrzk3pM5S-72">
          <mxGeometry y="60" width="140" height="30" as="geometry" />
        </mxCell>
        <mxCell id="ujHl2vr5YIRKrzk3pM5S-75" value="&lt;span style=&quot;font-size: 14px;&quot;&gt;subject_id&lt;/span&gt;" style="text;strokeColor=none;fillColor=none;align=left;verticalAlign=middle;spacingLeft=4;spacingRight=4;overflow=hidden;points=[[0,0.5],[1,0.5]];portConstraint=eastwest;rotatable=0;whiteSpace=wrap;html=1;" vertex="1" parent="ujHl2vr5YIRKrzk3pM5S-72">
          <mxGeometry y="90" width="140" height="30" as="geometry" />
        </mxCell>
        <mxCell id="ujHl2vr5YIRKrzk3pM5S-76" value="&lt;font style=&quot;font-size: 14px;&quot;&gt;lecturer_id&lt;/font&gt;" style="text;strokeColor=none;fillColor=none;align=left;verticalAlign=middle;spacingLeft=4;spacingRight=4;overflow=hidden;points=[[0,0.5],[1,0.5]];portConstraint=eastwest;rotatable=0;whiteSpace=wrap;html=1;" vertex="1" parent="ujHl2vr5YIRKrzk3pM5S-72">
          <mxGeometry y="120" width="140" height="30" as="geometry" />
        </mxCell>
        <mxCell id="ujHl2vr5YIRKrzk3pM5S-77" value="&lt;font style=&quot;font-size: 14px;&quot;&gt;group_id&lt;/font&gt;" style="text;strokeColor=none;fillColor=none;align=left;verticalAlign=middle;spacingLeft=4;spacingRight=4;overflow=hidden;points=[[0,0.5],[1,0.5]];portConstraint=eastwest;rotatable=0;whiteSpace=wrap;html=1;" vertex="1" parent="ujHl2vr5YIRKrzk3pM5S-72">
          <mxGeometry y="150" width="140" height="30" as="geometry" />
        </mxCell>
        <mxCell id="ujHl2vr5YIRKrzk3pM5S-78" value="&lt;font style=&quot;font-size: 14px;&quot;&gt;file_link&lt;/font&gt;" style="text;strokeColor=none;fillColor=none;align=left;verticalAlign=middle;spacingLeft=4;spacingRight=4;overflow=hidden;points=[[0,0.5],[1,0.5]];portConstraint=eastwest;rotatable=0;whiteSpace=wrap;html=1;" vertex="1" parent="ujHl2vr5YIRKrzk3pM5S-72">
          <mxGeometry y="180" width="140" height="30" as="geometry" />
        </mxCell>
        <mxCell id="ujHl2vr5YIRKrzk3pM5S-79" value="&lt;font style=&quot;font-size: 14px;&quot;&gt;description&lt;/font&gt;" style="text;strokeColor=none;fillColor=none;align=left;verticalAlign=middle;spacingLeft=4;spacingRight=4;overflow=hidden;points=[[0,0.5],[1,0.5]];portConstraint=eastwest;rotatable=0;whiteSpace=wrap;html=1;" vertex="1" parent="ujHl2vr5YIRKrzk3pM5S-72">
          <mxGeometry y="210" width="140" height="30" as="geometry" />
        </mxCell>
        <mxCell id="ujHl2vr5YIRKrzk3pM5S-80" value="&lt;font style=&quot;font-size: 14px;&quot;&gt;date_pass&lt;/font&gt;" style="text;strokeColor=none;fillColor=none;align=left;verticalAlign=middle;spacingLeft=4;spacingRight=4;overflow=hidden;points=[[0,0.5],[1,0.5]];portConstraint=eastwest;rotatable=0;whiteSpace=wrap;html=1;" vertex="1" parent="ujHl2vr5YIRKrzk3pM5S-72">
          <mxGeometry y="240" width="140" height="30" as="geometry" />
        </mxCell>
        <mxCell id="ujHl2vr5YIRKrzk3pM5S-81" value="&lt;font style=&quot;font-size: 14px;&quot;&gt;slug&lt;/font&gt;" style="text;strokeColor=none;fillColor=none;align=left;verticalAlign=middle;spacingLeft=4;spacingRight=4;overflow=hidden;points=[[0,0.5],[1,0.5]];portConstraint=eastwest;rotatable=0;whiteSpace=wrap;html=1;" vertex="1" parent="ujHl2vr5YIRKrzk3pM5S-72">
          <mxGeometry y="270" width="140" height="30" as="geometry" />
        </mxCell>
        <mxCell id="ujHl2vr5YIRKrzk3pM5S-82" value="&lt;font style=&quot;font-size: 16px;&quot;&gt;user_quest&lt;/font&gt;" style="swimlane;fontStyle=0;childLayout=stackLayout;horizontal=1;startSize=30;horizontalStack=0;resizeParent=1;resizeParentMax=0;resizeLast=0;collapsible=1;marginBottom=0;whiteSpace=wrap;html=1;" vertex="1" parent="1">
          <mxGeometry x="470" y="825" width="140" height="210" as="geometry" />
        </mxCell>
        <mxCell id="ujHl2vr5YIRKrzk3pM5S-83" value="&lt;font style=&quot;font-size: 14px;&quot;&gt;id&lt;/font&gt;" style="text;strokeColor=none;fillColor=none;align=left;verticalAlign=middle;spacingLeft=4;spacingRight=4;overflow=hidden;points=[[0,0.5],[1,0.5]];portConstraint=eastwest;rotatable=0;whiteSpace=wrap;html=1;" vertex="1" parent="ujHl2vr5YIRKrzk3pM5S-82">
          <mxGeometry y="30" width="140" height="30" as="geometry" />
        </mxCell>
        <mxCell id="ujHl2vr5YIRKrzk3pM5S-84" value="&lt;font style=&quot;font-size: 14px;&quot;&gt;user_id&lt;/font&gt;" style="text;strokeColor=none;fillColor=none;align=left;verticalAlign=middle;spacingLeft=4;spacingRight=4;overflow=hidden;points=[[0,0.5],[1,0.5]];portConstraint=eastwest;rotatable=0;whiteSpace=wrap;html=1;" vertex="1" parent="ujHl2vr5YIRKrzk3pM5S-82">
          <mxGeometry y="60" width="140" height="30" as="geometry" />
        </mxCell>
        <mxCell id="ujHl2vr5YIRKrzk3pM5S-85" value="&lt;span style=&quot;font-size: 14px;&quot;&gt;quest_id&lt;/span&gt;" style="text;strokeColor=none;fillColor=none;align=left;verticalAlign=middle;spacingLeft=4;spacingRight=4;overflow=hidden;points=[[0,0.5],[1,0.5]];portConstraint=eastwest;rotatable=0;whiteSpace=wrap;html=1;" vertex="1" parent="ujHl2vr5YIRKrzk3pM5S-82">
          <mxGeometry y="90" width="140" height="30" as="geometry" />
        </mxCell>
        <mxCell id="ujHl2vr5YIRKrzk3pM5S-86" value="&lt;font style=&quot;font-size: 14px;&quot;&gt;comment&lt;/font&gt;" style="text;strokeColor=none;fillColor=none;align=left;verticalAlign=middle;spacingLeft=4;spacingRight=4;overflow=hidden;points=[[0,0.5],[1,0.5]];portConstraint=eastwest;rotatable=0;whiteSpace=wrap;html=1;" vertex="1" parent="ujHl2vr5YIRKrzk3pM5S-82">
          <mxGeometry y="120" width="140" height="30" as="geometry" />
        </mxCell>
        <mxCell id="ujHl2vr5YIRKrzk3pM5S-87" value="&lt;font style=&quot;font-size: 14px;&quot;&gt;file_link&lt;/font&gt;" style="text;strokeColor=none;fillColor=none;align=left;verticalAlign=middle;spacingLeft=4;spacingRight=4;overflow=hidden;points=[[0,0.5],[1,0.5]];portConstraint=eastwest;rotatable=0;whiteSpace=wrap;html=1;" vertex="1" parent="ujHl2vr5YIRKrzk3pM5S-82">
          <mxGeometry y="150" width="140" height="30" as="geometry" />
        </mxCell>
        <mxCell id="ujHl2vr5YIRKrzk3pM5S-88" value="&lt;font style=&quot;font-size: 14px;&quot;&gt;date_added&lt;/font&gt;" style="text;strokeColor=none;fillColor=none;align=left;verticalAlign=middle;spacingLeft=4;spacingRight=4;overflow=hidden;points=[[0,0.5],[1,0.5]];portConstraint=eastwest;rotatable=0;whiteSpace=wrap;html=1;" vertex="1" parent="ujHl2vr5YIRKrzk3pM5S-82">
          <mxGeometry y="180" width="140" height="30" as="geometry" />
        </mxCell>
        <mxCell id="ujHl2vr5YIRKrzk3pM5S-92" value="&lt;font style=&quot;font-size: 16px;&quot;&gt;classroom&lt;/font&gt;" style="swimlane;fontStyle=0;childLayout=stackLayout;horizontal=1;startSize=30;horizontalStack=0;resizeParent=1;resizeParentMax=0;resizeLast=0;collapsible=1;marginBottom=0;whiteSpace=wrap;html=1;" vertex="1" parent="1">
          <mxGeometry x="1100" y="-320" width="150" height="240" as="geometry" />
        </mxCell>
        <mxCell id="ujHl2vr5YIRKrzk3pM5S-93" value="&lt;font style=&quot;font-size: 14px;&quot;&gt;id&lt;/font&gt;" style="text;strokeColor=none;fillColor=none;align=left;verticalAlign=middle;spacingLeft=4;spacingRight=4;overflow=hidden;points=[[0,0.5],[1,0.5]];portConstraint=eastwest;rotatable=0;whiteSpace=wrap;html=1;" vertex="1" parent="ujHl2vr5YIRKrzk3pM5S-92">
          <mxGeometry y="30" width="150" height="30" as="geometry" />
        </mxCell>
        <mxCell id="ujHl2vr5YIRKrzk3pM5S-94" value="&lt;font style=&quot;font-size: 14px;&quot;&gt;room_number&lt;/font&gt;" style="text;strokeColor=none;fillColor=none;align=left;verticalAlign=middle;spacingLeft=4;spacingRight=4;overflow=hidden;points=[[0,0.5],[1,0.5]];portConstraint=eastwest;rotatable=0;whiteSpace=wrap;html=1;" vertex="1" parent="ujHl2vr5YIRKrzk3pM5S-92">
          <mxGeometry y="60" width="150" height="30" as="geometry" />
        </mxCell>
        <mxCell id="ujHl2vr5YIRKrzk3pM5S-95" value="&lt;span style=&quot;font-size: 14px;&quot;&gt;floor&lt;/span&gt;" style="text;strokeColor=none;fillColor=none;align=left;verticalAlign=middle;spacingLeft=4;spacingRight=4;overflow=hidden;points=[[0,0.5],[1,0.5]];portConstraint=eastwest;rotatable=0;whiteSpace=wrap;html=1;" vertex="1" parent="ujHl2vr5YIRKrzk3pM5S-92">
          <mxGeometry y="90" width="150" height="30" as="geometry" />
        </mxCell>
        <mxCell id="ujHl2vr5YIRKrzk3pM5S-96" value="&lt;font style=&quot;font-size: 14px;&quot;&gt;number_of_seats&lt;/font&gt;" style="text;strokeColor=none;fillColor=none;align=left;verticalAlign=middle;spacingLeft=4;spacingRight=4;overflow=hidden;points=[[0,0.5],[1,0.5]];portConstraint=eastwest;rotatable=0;whiteSpace=wrap;html=1;" vertex="1" parent="ujHl2vr5YIRKrzk3pM5S-92">
          <mxGeometry y="120" width="150" height="30" as="geometry" />
        </mxCell>
        <mxCell id="ujHl2vr5YIRKrzk3pM5S-98" value="&lt;font style=&quot;font-size: 14px;&quot;&gt;number_of_computers&lt;/font&gt;" style="text;strokeColor=none;fillColor=none;align=left;verticalAlign=middle;spacingLeft=4;spacingRight=4;overflow=hidden;points=[[0,0.5],[1,0.5]];portConstraint=eastwest;rotatable=0;whiteSpace=wrap;html=1;" vertex="1" parent="ujHl2vr5YIRKrzk3pM5S-92">
          <mxGeometry y="150" width="150" height="30" as="geometry" />
        </mxCell>
        <mxCell id="ujHl2vr5YIRKrzk3pM5S-97" value="&lt;font style=&quot;font-size: 14px;&quot;&gt;campus&lt;/font&gt;" style="text;strokeColor=none;fillColor=none;align=left;verticalAlign=middle;spacingLeft=4;spacingRight=4;overflow=hidden;points=[[0,0.5],[1,0.5]];portConstraint=eastwest;rotatable=0;whiteSpace=wrap;html=1;" vertex="1" parent="ujHl2vr5YIRKrzk3pM5S-92">
          <mxGeometry y="180" width="150" height="30" as="geometry" />
        </mxCell>
        <mxCell id="ujHl2vr5YIRKrzk3pM5S-99" value="&lt;font style=&quot;font-size: 14px;&quot;&gt;slug&lt;/font&gt;" style="text;strokeColor=none;fillColor=none;align=left;verticalAlign=middle;spacingLeft=4;spacingRight=4;overflow=hidden;points=[[0,0.5],[1,0.5]];portConstraint=eastwest;rotatable=0;whiteSpace=wrap;html=1;" vertex="1" parent="ujHl2vr5YIRKrzk3pM5S-92">
          <mxGeometry y="210" width="150" height="30" as="geometry" />
        </mxCell>
        <mxCell id="ujHl2vr5YIRKrzk3pM5S-100" value="&lt;font style=&quot;font-size: 16px;&quot;&gt;exam&lt;/font&gt;" style="swimlane;fontStyle=0;childLayout=stackLayout;horizontal=1;startSize=30;horizontalStack=0;resizeParent=1;resizeParentMax=0;resizeLast=0;collapsible=1;marginBottom=0;whiteSpace=wrap;html=1;" vertex="1" parent="1">
          <mxGeometry x="440" y="60" width="140" height="300" as="geometry" />
        </mxCell>
        <mxCell id="ujHl2vr5YIRKrzk3pM5S-101" value="&lt;font style=&quot;font-size: 14px;&quot;&gt;id&lt;/font&gt;" style="text;strokeColor=none;fillColor=none;align=left;verticalAlign=middle;spacingLeft=4;spacingRight=4;overflow=hidden;points=[[0,0.5],[1,0.5]];portConstraint=eastwest;rotatable=0;whiteSpace=wrap;html=1;" vertex="1" parent="ujHl2vr5YIRKrzk3pM5S-100">
          <mxGeometry y="30" width="140" height="30" as="geometry" />
        </mxCell>
        <mxCell id="ujHl2vr5YIRKrzk3pM5S-102" value="&lt;font style=&quot;font-size: 14px;&quot;&gt;group_id&lt;/font&gt;" style="text;strokeColor=none;fillColor=none;align=left;verticalAlign=middle;spacingLeft=4;spacingRight=4;overflow=hidden;points=[[0,0.5],[1,0.5]];portConstraint=eastwest;rotatable=0;whiteSpace=wrap;html=1;" vertex="1" parent="ujHl2vr5YIRKrzk3pM5S-100">
          <mxGeometry y="60" width="140" height="30" as="geometry" />
        </mxCell>
        <mxCell id="ujHl2vr5YIRKrzk3pM5S-103" value="&lt;span style=&quot;font-size: 14px;&quot;&gt;subject_id&lt;/span&gt;" style="text;strokeColor=none;fillColor=none;align=left;verticalAlign=middle;spacingLeft=4;spacingRight=4;overflow=hidden;points=[[0,0.5],[1,0.5]];portConstraint=eastwest;rotatable=0;whiteSpace=wrap;html=1;" vertex="1" parent="ujHl2vr5YIRKrzk3pM5S-100">
          <mxGeometry y="90" width="140" height="30" as="geometry" />
        </mxCell>
        <mxCell id="ujHl2vr5YIRKrzk3pM5S-104" value="&lt;font style=&quot;font-size: 14px;&quot;&gt;lecturer_id&lt;/font&gt;" style="text;strokeColor=none;fillColor=none;align=left;verticalAlign=middle;spacingLeft=4;spacingRight=4;overflow=hidden;points=[[0,0.5],[1,0.5]];portConstraint=eastwest;rotatable=0;whiteSpace=wrap;html=1;" vertex="1" parent="ujHl2vr5YIRKrzk3pM5S-100">
          <mxGeometry y="120" width="140" height="30" as="geometry" />
        </mxCell>
        <mxCell id="ujHl2vr5YIRKrzk3pM5S-157" value="&lt;font style=&quot;font-size: 14px;&quot;&gt;start_tiem&lt;/font&gt;" style="text;strokeColor=none;fillColor=none;align=left;verticalAlign=middle;spacingLeft=4;spacingRight=4;overflow=hidden;points=[[0,0.5],[1,0.5]];portConstraint=eastwest;rotatable=0;whiteSpace=wrap;html=1;" vertex="1" parent="ujHl2vr5YIRKrzk3pM5S-100">
          <mxGeometry y="150" width="140" height="30" as="geometry" />
        </mxCell>
        <mxCell id="ujHl2vr5YIRKrzk3pM5S-105" value="&lt;font style=&quot;font-size: 14px;&quot;&gt;start_tiem&lt;/font&gt;" style="text;strokeColor=none;fillColor=none;align=left;verticalAlign=middle;spacingLeft=4;spacingRight=4;overflow=hidden;points=[[0,0.5],[1,0.5]];portConstraint=eastwest;rotatable=0;whiteSpace=wrap;html=1;" vertex="1" parent="ujHl2vr5YIRKrzk3pM5S-100">
          <mxGeometry y="180" width="140" height="30" as="geometry" />
        </mxCell>
        <mxCell id="ujHl2vr5YIRKrzk3pM5S-106" value="&lt;font style=&quot;font-size: 14px;&quot;&gt;end_time&lt;/font&gt;" style="text;strokeColor=none;fillColor=none;align=left;verticalAlign=middle;spacingLeft=4;spacingRight=4;overflow=hidden;points=[[0,0.5],[1,0.5]];portConstraint=eastwest;rotatable=0;whiteSpace=wrap;html=1;" vertex="1" parent="ujHl2vr5YIRKrzk3pM5S-100">
          <mxGeometry y="210" width="140" height="30" as="geometry" />
        </mxCell>
        <mxCell id="ujHl2vr5YIRKrzk3pM5S-107" value="&lt;font style=&quot;font-size: 14px;&quot;&gt;classroom_id&lt;/font&gt;" style="text;strokeColor=none;fillColor=none;align=left;verticalAlign=middle;spacingLeft=4;spacingRight=4;overflow=hidden;points=[[0,0.5],[1,0.5]];portConstraint=eastwest;rotatable=0;whiteSpace=wrap;html=1;" vertex="1" parent="ujHl2vr5YIRKrzk3pM5S-100">
          <mxGeometry y="240" width="140" height="30" as="geometry" />
        </mxCell>
        <mxCell id="ujHl2vr5YIRKrzk3pM5S-108" value="&lt;font style=&quot;font-size: 14px;&quot;&gt;date&lt;/font&gt;" style="text;strokeColor=none;fillColor=none;align=left;verticalAlign=middle;spacingLeft=4;spacingRight=4;overflow=hidden;points=[[0,0.5],[1,0.5]];portConstraint=eastwest;rotatable=0;whiteSpace=wrap;html=1;" vertex="1" parent="ujHl2vr5YIRKrzk3pM5S-100">
          <mxGeometry y="270" width="140" height="30" as="geometry" />
        </mxCell>
        <mxCell id="ujHl2vr5YIRKrzk3pM5S-109" value="&lt;font style=&quot;font-size: 16px;&quot;&gt;timetable_classes&lt;/font&gt;" style="swimlane;fontStyle=0;childLayout=stackLayout;horizontal=1;startSize=30;horizontalStack=0;resizeParent=1;resizeParentMax=0;resizeLast=0;collapsible=1;marginBottom=0;whiteSpace=wrap;html=1;" vertex="1" parent="1">
          <mxGeometry x="490" y="-360" width="150" height="330" as="geometry" />
        </mxCell>
        <mxCell id="ujHl2vr5YIRKrzk3pM5S-110" value="&lt;font style=&quot;font-size: 14px;&quot;&gt;id&lt;/font&gt;" style="text;strokeColor=none;fillColor=none;align=left;verticalAlign=middle;spacingLeft=4;spacingRight=4;overflow=hidden;points=[[0,0.5],[1,0.5]];portConstraint=eastwest;rotatable=0;whiteSpace=wrap;html=1;" vertex="1" parent="ujHl2vr5YIRKrzk3pM5S-109">
          <mxGeometry y="30" width="150" height="30" as="geometry" />
        </mxCell>
        <mxCell id="ujHl2vr5YIRKrzk3pM5S-111" value="&lt;font style=&quot;font-size: 14px;&quot;&gt;group_id&lt;/font&gt;" style="text;strokeColor=none;fillColor=none;align=left;verticalAlign=middle;spacingLeft=4;spacingRight=4;overflow=hidden;points=[[0,0.5],[1,0.5]];portConstraint=eastwest;rotatable=0;whiteSpace=wrap;html=1;" vertex="1" parent="ujHl2vr5YIRKrzk3pM5S-109">
          <mxGeometry y="60" width="150" height="30" as="geometry" />
        </mxCell>
        <mxCell id="ujHl2vr5YIRKrzk3pM5S-112" value="&lt;span style=&quot;font-size: 14px;&quot;&gt;subject_id&lt;/span&gt;" style="text;strokeColor=none;fillColor=none;align=left;verticalAlign=middle;spacingLeft=4;spacingRight=4;overflow=hidden;points=[[0,0.5],[1,0.5]];portConstraint=eastwest;rotatable=0;whiteSpace=wrap;html=1;" vertex="1" parent="ujHl2vr5YIRKrzk3pM5S-109">
          <mxGeometry y="90" width="150" height="30" as="geometry" />
        </mxCell>
        <mxCell id="ujHl2vr5YIRKrzk3pM5S-113" value="&lt;font style=&quot;font-size: 14px;&quot;&gt;lecturer_id&lt;/font&gt;" style="text;strokeColor=none;fillColor=none;align=left;verticalAlign=middle;spacingLeft=4;spacingRight=4;overflow=hidden;points=[[0,0.5],[1,0.5]];portConstraint=eastwest;rotatable=0;whiteSpace=wrap;html=1;" vertex="1" parent="ujHl2vr5YIRKrzk3pM5S-109">
          <mxGeometry y="120" width="150" height="30" as="geometry" />
        </mxCell>
        <mxCell id="ujHl2vr5YIRKrzk3pM5S-114" value="&lt;font style=&quot;font-size: 14px;&quot;&gt;lesson_number&lt;/font&gt;" style="text;strokeColor=none;fillColor=none;align=left;verticalAlign=middle;spacingLeft=4;spacingRight=4;overflow=hidden;points=[[0,0.5],[1,0.5]];portConstraint=eastwest;rotatable=0;whiteSpace=wrap;html=1;" vertex="1" parent="ujHl2vr5YIRKrzk3pM5S-109">
          <mxGeometry y="150" width="150" height="30" as="geometry" />
        </mxCell>
        <mxCell id="ujHl2vr5YIRKrzk3pM5S-115" value="&lt;font style=&quot;font-size: 14px;&quot;&gt;start_time&lt;/font&gt;" style="text;strokeColor=none;fillColor=none;align=left;verticalAlign=middle;spacingLeft=4;spacingRight=4;overflow=hidden;points=[[0,0.5],[1,0.5]];portConstraint=eastwest;rotatable=0;whiteSpace=wrap;html=1;" vertex="1" parent="ujHl2vr5YIRKrzk3pM5S-109">
          <mxGeometry y="180" width="150" height="30" as="geometry" />
        </mxCell>
        <mxCell id="ujHl2vr5YIRKrzk3pM5S-116" value="&lt;font style=&quot;font-size: 14px;&quot;&gt;end_time&lt;/font&gt;" style="text;strokeColor=none;fillColor=none;align=left;verticalAlign=middle;spacingLeft=4;spacingRight=4;overflow=hidden;points=[[0,0.5],[1,0.5]];portConstraint=eastwest;rotatable=0;whiteSpace=wrap;html=1;" vertex="1" parent="ujHl2vr5YIRKrzk3pM5S-109">
          <mxGeometry y="210" width="150" height="30" as="geometry" />
        </mxCell>
        <mxCell id="ujHl2vr5YIRKrzk3pM5S-117" value="&lt;font style=&quot;font-size: 14px;&quot;&gt;evenness&lt;/font&gt;" style="text;strokeColor=none;fillColor=none;align=left;verticalAlign=middle;spacingLeft=4;spacingRight=4;overflow=hidden;points=[[0,0.5],[1,0.5]];portConstraint=eastwest;rotatable=0;whiteSpace=wrap;html=1;" vertex="1" parent="ujHl2vr5YIRKrzk3pM5S-109">
          <mxGeometry y="240" width="150" height="30" as="geometry" />
        </mxCell>
        <mxCell id="ujHl2vr5YIRKrzk3pM5S-118" value="&lt;font style=&quot;font-size: 14px;&quot;&gt;day_of_the_week&lt;/font&gt;" style="text;strokeColor=none;fillColor=none;align=left;verticalAlign=middle;spacingLeft=4;spacingRight=4;overflow=hidden;points=[[0,0.5],[1,0.5]];portConstraint=eastwest;rotatable=0;whiteSpace=wrap;html=1;" vertex="1" parent="ujHl2vr5YIRKrzk3pM5S-109">
          <mxGeometry y="270" width="150" height="30" as="geometry" />
        </mxCell>
        <mxCell id="ujHl2vr5YIRKrzk3pM5S-119" value="&lt;font style=&quot;font-size: 14px;&quot;&gt;classroom_id&lt;/font&gt;" style="text;strokeColor=none;fillColor=none;align=left;verticalAlign=middle;spacingLeft=4;spacingRight=4;overflow=hidden;points=[[0,0.5],[1,0.5]];portConstraint=eastwest;rotatable=0;whiteSpace=wrap;html=1;" vertex="1" parent="ujHl2vr5YIRKrzk3pM5S-109">
          <mxGeometry y="300" width="150" height="30" as="geometry" />
        </mxCell>
        <mxCell id="ujHl2vr5YIRKrzk3pM5S-120" value="&lt;font style=&quot;font-size: 16px;&quot;&gt;timetable_classes&lt;/font&gt;" style="swimlane;fontStyle=0;childLayout=stackLayout;horizontal=1;startSize=30;horizontalStack=0;resizeParent=1;resizeParentMax=0;resizeLast=0;collapsible=1;marginBottom=0;whiteSpace=wrap;html=1;" vertex="1" parent="1">
          <mxGeometry x="827" y="-360" width="150" height="330" as="geometry" />
        </mxCell>
        <mxCell id="ujHl2vr5YIRKrzk3pM5S-121" value="&lt;font style=&quot;font-size: 14px;&quot;&gt;id&lt;/font&gt;" style="text;strokeColor=none;fillColor=none;align=left;verticalAlign=middle;spacingLeft=4;spacingRight=4;overflow=hidden;points=[[0,0.5],[1,0.5]];portConstraint=eastwest;rotatable=0;whiteSpace=wrap;html=1;" vertex="1" parent="ujHl2vr5YIRKrzk3pM5S-120">
          <mxGeometry y="30" width="150" height="30" as="geometry" />
        </mxCell>
        <mxCell id="ujHl2vr5YIRKrzk3pM5S-122" value="&lt;font style=&quot;font-size: 14px;&quot;&gt;group_id&lt;/font&gt;" style="text;strokeColor=none;fillColor=none;align=left;verticalAlign=middle;spacingLeft=4;spacingRight=4;overflow=hidden;points=[[0,0.5],[1,0.5]];portConstraint=eastwest;rotatable=0;whiteSpace=wrap;html=1;" vertex="1" parent="ujHl2vr5YIRKrzk3pM5S-120">
          <mxGeometry y="60" width="150" height="30" as="geometry" />
        </mxCell>
        <mxCell id="ujHl2vr5YIRKrzk3pM5S-123" value="&lt;span style=&quot;font-size: 14px;&quot;&gt;subject_id&lt;/span&gt;" style="text;strokeColor=none;fillColor=none;align=left;verticalAlign=middle;spacingLeft=4;spacingRight=4;overflow=hidden;points=[[0,0.5],[1,0.5]];portConstraint=eastwest;rotatable=0;whiteSpace=wrap;html=1;" vertex="1" parent="ujHl2vr5YIRKrzk3pM5S-120">
          <mxGeometry y="90" width="150" height="30" as="geometry" />
        </mxCell>
        <mxCell id="ujHl2vr5YIRKrzk3pM5S-124" value="&lt;font style=&quot;font-size: 14px;&quot;&gt;lecturer_id&lt;/font&gt;" style="text;strokeColor=none;fillColor=none;align=left;verticalAlign=middle;spacingLeft=4;spacingRight=4;overflow=hidden;points=[[0,0.5],[1,0.5]];portConstraint=eastwest;rotatable=0;whiteSpace=wrap;html=1;" vertex="1" parent="ujHl2vr5YIRKrzk3pM5S-120">
          <mxGeometry y="120" width="150" height="30" as="geometry" />
        </mxCell>
        <mxCell id="ujHl2vr5YIRKrzk3pM5S-125" value="&lt;font style=&quot;font-size: 14px;&quot;&gt;lesson_number&lt;/font&gt;" style="text;strokeColor=none;fillColor=none;align=left;verticalAlign=middle;spacingLeft=4;spacingRight=4;overflow=hidden;points=[[0,0.5],[1,0.5]];portConstraint=eastwest;rotatable=0;whiteSpace=wrap;html=1;" vertex="1" parent="ujHl2vr5YIRKrzk3pM5S-120">
          <mxGeometry y="150" width="150" height="30" as="geometry" />
        </mxCell>
        <mxCell id="ujHl2vr5YIRKrzk3pM5S-126" value="&lt;font style=&quot;font-size: 14px;&quot;&gt;start_time&lt;/font&gt;" style="text;strokeColor=none;fillColor=none;align=left;verticalAlign=middle;spacingLeft=4;spacingRight=4;overflow=hidden;points=[[0,0.5],[1,0.5]];portConstraint=eastwest;rotatable=0;whiteSpace=wrap;html=1;" vertex="1" parent="ujHl2vr5YIRKrzk3pM5S-120">
          <mxGeometry y="180" width="150" height="30" as="geometry" />
        </mxCell>
        <mxCell id="ujHl2vr5YIRKrzk3pM5S-127" value="&lt;font style=&quot;font-size: 14px;&quot;&gt;end_time&lt;/font&gt;" style="text;strokeColor=none;fillColor=none;align=left;verticalAlign=middle;spacingLeft=4;spacingRight=4;overflow=hidden;points=[[0,0.5],[1,0.5]];portConstraint=eastwest;rotatable=0;whiteSpace=wrap;html=1;" vertex="1" parent="ujHl2vr5YIRKrzk3pM5S-120">
          <mxGeometry y="210" width="150" height="30" as="geometry" />
        </mxCell>
        <mxCell id="ujHl2vr5YIRKrzk3pM5S-128" value="&lt;font style=&quot;font-size: 14px;&quot;&gt;evenness&lt;/font&gt;" style="text;strokeColor=none;fillColor=none;align=left;verticalAlign=middle;spacingLeft=4;spacingRight=4;overflow=hidden;points=[[0,0.5],[1,0.5]];portConstraint=eastwest;rotatable=0;whiteSpace=wrap;html=1;" vertex="1" parent="ujHl2vr5YIRKrzk3pM5S-120">
          <mxGeometry y="240" width="150" height="30" as="geometry" />
        </mxCell>
        <mxCell id="ujHl2vr5YIRKrzk3pM5S-129" value="&lt;font style=&quot;font-size: 14px;&quot;&gt;date&lt;/font&gt;" style="text;strokeColor=none;fillColor=none;align=left;verticalAlign=middle;spacingLeft=4;spacingRight=4;overflow=hidden;points=[[0,0.5],[1,0.5]];portConstraint=eastwest;rotatable=0;whiteSpace=wrap;html=1;" vertex="1" parent="ujHl2vr5YIRKrzk3pM5S-120">
          <mxGeometry y="270" width="150" height="30" as="geometry" />
        </mxCell>
        <mxCell id="ujHl2vr5YIRKrzk3pM5S-130" value="&lt;font style=&quot;font-size: 14px;&quot;&gt;classroom_id&lt;/font&gt;" style="text;strokeColor=none;fillColor=none;align=left;verticalAlign=middle;spacingLeft=4;spacingRight=4;overflow=hidden;points=[[0,0.5],[1,0.5]];portConstraint=eastwest;rotatable=0;whiteSpace=wrap;html=1;" vertex="1" parent="ujHl2vr5YIRKrzk3pM5S-120">
          <mxGeometry y="300" width="150" height="30" as="geometry" />
        </mxCell>
        <mxCell id="ujHl2vr5YIRKrzk3pM5S-131" value="&lt;font style=&quot;font-size: 16px;&quot;&gt;lesson&lt;/font&gt;" style="swimlane;fontStyle=0;childLayout=stackLayout;horizontal=1;startSize=30;horizontalStack=0;resizeParent=1;resizeParentMax=0;resizeLast=0;collapsible=1;marginBottom=0;whiteSpace=wrap;html=1;" vertex="1" parent="1">
          <mxGeometry x="1310" y="30" width="150" height="360" as="geometry" />
        </mxCell>
        <mxCell id="ujHl2vr5YIRKrzk3pM5S-132" value="&lt;font style=&quot;font-size: 14px;&quot;&gt;id&lt;/font&gt;" style="text;strokeColor=none;fillColor=none;align=left;verticalAlign=middle;spacingLeft=4;spacingRight=4;overflow=hidden;points=[[0,0.5],[1,0.5]];portConstraint=eastwest;rotatable=0;whiteSpace=wrap;html=1;" vertex="1" parent="ujHl2vr5YIRKrzk3pM5S-131">
          <mxGeometry y="30" width="150" height="30" as="geometry" />
        </mxCell>
        <mxCell id="ujHl2vr5YIRKrzk3pM5S-133" value="&lt;font style=&quot;font-size: 14px;&quot;&gt;lesson_topic&lt;/font&gt;" style="text;strokeColor=none;fillColor=none;align=left;verticalAlign=middle;spacingLeft=4;spacingRight=4;overflow=hidden;points=[[0,0.5],[1,0.5]];portConstraint=eastwest;rotatable=0;whiteSpace=wrap;html=1;" vertex="1" parent="ujHl2vr5YIRKrzk3pM5S-131">
          <mxGeometry y="60" width="150" height="30" as="geometry" />
        </mxCell>
        <mxCell id="ujHl2vr5YIRKrzk3pM5S-134" value="&lt;span style=&quot;font-size: 14px;&quot;&gt;kesson_nuber&lt;/span&gt;" style="text;strokeColor=none;fillColor=none;align=left;verticalAlign=middle;spacingLeft=4;spacingRight=4;overflow=hidden;points=[[0,0.5],[1,0.5]];portConstraint=eastwest;rotatable=0;whiteSpace=wrap;html=1;" vertex="1" parent="ujHl2vr5YIRKrzk3pM5S-131">
          <mxGeometry y="90" width="150" height="30" as="geometry" />
        </mxCell>
        <mxCell id="ujHl2vr5YIRKrzk3pM5S-135" value="&lt;font style=&quot;font-size: 14px;&quot;&gt;group_id&lt;/font&gt;" style="text;strokeColor=none;fillColor=none;align=left;verticalAlign=middle;spacingLeft=4;spacingRight=4;overflow=hidden;points=[[0,0.5],[1,0.5]];portConstraint=eastwest;rotatable=0;whiteSpace=wrap;html=1;" vertex="1" parent="ujHl2vr5YIRKrzk3pM5S-131">
          <mxGeometry y="120" width="150" height="30" as="geometry" />
        </mxCell>
        <mxCell id="ujHl2vr5YIRKrzk3pM5S-136" value="&lt;font style=&quot;font-size: 14px;&quot;&gt;subject_id&lt;/font&gt;" style="text;strokeColor=none;fillColor=none;align=left;verticalAlign=middle;spacingLeft=4;spacingRight=4;overflow=hidden;points=[[0,0.5],[1,0.5]];portConstraint=eastwest;rotatable=0;whiteSpace=wrap;html=1;" vertex="1" parent="ujHl2vr5YIRKrzk3pM5S-131">
          <mxGeometry y="150" width="150" height="30" as="geometry" />
        </mxCell>
        <mxCell id="ujHl2vr5YIRKrzk3pM5S-137" value="&lt;font style=&quot;font-size: 14px;&quot;&gt;lecturer_id&lt;/font&gt;" style="text;strokeColor=none;fillColor=none;align=left;verticalAlign=middle;spacingLeft=4;spacingRight=4;overflow=hidden;points=[[0,0.5],[1,0.5]];portConstraint=eastwest;rotatable=0;whiteSpace=wrap;html=1;" vertex="1" parent="ujHl2vr5YIRKrzk3pM5S-131">
          <mxGeometry y="180" width="150" height="30" as="geometry" />
        </mxCell>
        <mxCell id="ujHl2vr5YIRKrzk3pM5S-138" value="&lt;font style=&quot;font-size: 14px;&quot;&gt;classroom_id&lt;/font&gt;" style="text;strokeColor=none;fillColor=none;align=left;verticalAlign=middle;spacingLeft=4;spacingRight=4;overflow=hidden;points=[[0,0.5],[1,0.5]];portConstraint=eastwest;rotatable=0;whiteSpace=wrap;html=1;" vertex="1" parent="ujHl2vr5YIRKrzk3pM5S-131">
          <mxGeometry y="210" width="150" height="30" as="geometry" />
        </mxCell>
        <mxCell id="ujHl2vr5YIRKrzk3pM5S-139" value="&lt;font style=&quot;font-size: 14px;&quot;&gt;type_of_lesson&lt;/font&gt;" style="text;strokeColor=none;fillColor=none;align=left;verticalAlign=middle;spacingLeft=4;spacingRight=4;overflow=hidden;points=[[0,0.5],[1,0.5]];portConstraint=eastwest;rotatable=0;whiteSpace=wrap;html=1;" vertex="1" parent="ujHl2vr5YIRKrzk3pM5S-131">
          <mxGeometry y="240" width="150" height="30" as="geometry" />
        </mxCell>
        <mxCell id="ujHl2vr5YIRKrzk3pM5S-140" value="&lt;font style=&quot;font-size: 14px;&quot;&gt;date&lt;/font&gt;" style="text;strokeColor=none;fillColor=none;align=left;verticalAlign=middle;spacingLeft=4;spacingRight=4;overflow=hidden;points=[[0,0.5],[1,0.5]];portConstraint=eastwest;rotatable=0;whiteSpace=wrap;html=1;" vertex="1" parent="ujHl2vr5YIRKrzk3pM5S-131">
          <mxGeometry y="270" width="150" height="30" as="geometry" />
        </mxCell>
        <mxCell id="ujHl2vr5YIRKrzk3pM5S-141" value="&lt;font style=&quot;font-size: 14px;&quot;&gt;student_scores&lt;/font&gt;" style="text;strokeColor=none;fillColor=none;align=left;verticalAlign=middle;spacingLeft=4;spacingRight=4;overflow=hidden;points=[[0,0.5],[1,0.5]];portConstraint=eastwest;rotatable=0;whiteSpace=wrap;html=1;" vertex="1" parent="ujHl2vr5YIRKrzk3pM5S-131">
          <mxGeometry y="300" width="150" height="30" as="geometry" />
        </mxCell>
        <mxCell id="ujHl2vr5YIRKrzk3pM5S-142" value="&lt;font style=&quot;font-size: 14px;&quot;&gt;quest&lt;/font&gt;" style="text;strokeColor=none;fillColor=none;align=left;verticalAlign=middle;spacingLeft=4;spacingRight=4;overflow=hidden;points=[[0,0.5],[1,0.5]];portConstraint=eastwest;rotatable=0;whiteSpace=wrap;html=1;" vertex="1" parent="ujHl2vr5YIRKrzk3pM5S-131">
          <mxGeometry y="330" width="150" height="30" as="geometry" />
        </mxCell>
        <mxCell id="ujHl2vr5YIRKrzk3pM5S-143" value="&lt;font style=&quot;font-size: 16px;&quot;&gt;journal&lt;/font&gt;" style="swimlane;fontStyle=0;childLayout=stackLayout;horizontal=1;startSize=30;horizontalStack=0;resizeParent=1;resizeParentMax=0;resizeLast=0;collapsible=1;marginBottom=0;whiteSpace=wrap;html=1;" vertex="1" parent="1">
          <mxGeometry x="1550" y="270" width="150" height="270" as="geometry" />
        </mxCell>
        <mxCell id="ujHl2vr5YIRKrzk3pM5S-144" value="&lt;font style=&quot;font-size: 14px;&quot;&gt;id&lt;/font&gt;" style="text;strokeColor=none;fillColor=none;align=left;verticalAlign=middle;spacingLeft=4;spacingRight=4;overflow=hidden;points=[[0,0.5],[1,0.5]];portConstraint=eastwest;rotatable=0;whiteSpace=wrap;html=1;" vertex="1" parent="ujHl2vr5YIRKrzk3pM5S-143">
          <mxGeometry y="30" width="150" height="30" as="geometry" />
        </mxCell>
        <mxCell id="ujHl2vr5YIRKrzk3pM5S-147" value="&lt;font style=&quot;font-size: 14px;&quot;&gt;group_id&lt;/font&gt;" style="text;strokeColor=none;fillColor=none;align=left;verticalAlign=middle;spacingLeft=4;spacingRight=4;overflow=hidden;points=[[0,0.5],[1,0.5]];portConstraint=eastwest;rotatable=0;whiteSpace=wrap;html=1;" vertex="1" parent="ujHl2vr5YIRKrzk3pM5S-143">
          <mxGeometry y="60" width="150" height="30" as="geometry" />
        </mxCell>
        <mxCell id="ujHl2vr5YIRKrzk3pM5S-148" value="&lt;font style=&quot;font-size: 14px;&quot;&gt;subject_id&lt;/font&gt;" style="text;strokeColor=none;fillColor=none;align=left;verticalAlign=middle;spacingLeft=4;spacingRight=4;overflow=hidden;points=[[0,0.5],[1,0.5]];portConstraint=eastwest;rotatable=0;whiteSpace=wrap;html=1;" vertex="1" parent="ujHl2vr5YIRKrzk3pM5S-143">
          <mxGeometry y="90" width="150" height="30" as="geometry" />
        </mxCell>
        <mxCell id="ujHl2vr5YIRKrzk3pM5S-149" value="&lt;font style=&quot;font-size: 14px;&quot;&gt;lecturer_id&lt;/font&gt;" style="text;strokeColor=none;fillColor=none;align=left;verticalAlign=middle;spacingLeft=4;spacingRight=4;overflow=hidden;points=[[0,0.5],[1,0.5]];portConstraint=eastwest;rotatable=0;whiteSpace=wrap;html=1;" vertex="1" parent="ujHl2vr5YIRKrzk3pM5S-143">
          <mxGeometry y="120" width="150" height="30" as="geometry" />
        </mxCell>
        <mxCell id="ujHl2vr5YIRKrzk3pM5S-151" value="&lt;font style=&quot;font-size: 14px;&quot;&gt;number_of_lesson&lt;/font&gt;" style="text;strokeColor=none;fillColor=none;align=left;verticalAlign=middle;spacingLeft=4;spacingRight=4;overflow=hidden;points=[[0,0.5],[1,0.5]];portConstraint=eastwest;rotatable=0;whiteSpace=wrap;html=1;" vertex="1" parent="ujHl2vr5YIRKrzk3pM5S-143">
          <mxGeometry y="150" width="150" height="30" as="geometry" />
        </mxCell>
        <mxCell id="ujHl2vr5YIRKrzk3pM5S-152" value="&lt;font style=&quot;font-size: 14px;&quot;&gt;date&lt;/font&gt;" style="text;strokeColor=none;fillColor=none;align=left;verticalAlign=middle;spacingLeft=4;spacingRight=4;overflow=hidden;points=[[0,0.5],[1,0.5]];portConstraint=eastwest;rotatable=0;whiteSpace=wrap;html=1;" vertex="1" parent="ujHl2vr5YIRKrzk3pM5S-143">
          <mxGeometry y="180" width="150" height="30" as="geometry" />
        </mxCell>
        <mxCell id="ujHl2vr5YIRKrzk3pM5S-153" value="&lt;font style=&quot;font-size: 14px;&quot;&gt;lessons&lt;/font&gt;" style="text;strokeColor=none;fillColor=none;align=left;verticalAlign=middle;spacingLeft=4;spacingRight=4;overflow=hidden;points=[[0,0.5],[1,0.5]];portConstraint=eastwest;rotatable=0;whiteSpace=wrap;html=1;" vertex="1" parent="ujHl2vr5YIRKrzk3pM5S-143">
          <mxGeometry y="210" width="150" height="30" as="geometry" />
        </mxCell>
        <mxCell id="ujHl2vr5YIRKrzk3pM5S-154" value="&lt;font style=&quot;font-size: 14px;&quot;&gt;slug&lt;/font&gt;" style="text;strokeColor=none;fillColor=none;align=left;verticalAlign=middle;spacingLeft=4;spacingRight=4;overflow=hidden;points=[[0,0.5],[1,0.5]];portConstraint=eastwest;rotatable=0;whiteSpace=wrap;html=1;" vertex="1" parent="ujHl2vr5YIRKrzk3pM5S-143">
          <mxGeometry y="240" width="150" height="30" as="geometry" />
        </mxCell>
        <mxCell id="ujHl2vr5YIRKrzk3pM5S-163" style="edgeStyle=orthogonalEdgeStyle;rounded=0;orthogonalLoop=1;jettySize=auto;html=1;exitX=1;exitY=0.5;exitDx=0;exitDy=0;entryX=-0.007;entryY=0.733;entryDx=0;entryDy=0;entryPerimeter=0;" edge="1" parent="1" source="ujHl2vr5YIRKrzk3pM5S-2" target="ujHl2vr5YIRKrzk3pM5S-30">
          <mxGeometry relative="1" as="geometry" />
        </mxCell>
        <mxCell id="ujHl2vr5YIRKrzk3pM5S-165" style="edgeStyle=orthogonalEdgeStyle;rounded=0;orthogonalLoop=1;jettySize=auto;html=1;exitX=1;exitY=0.5;exitDx=0;exitDy=0;entryX=0;entryY=0.5;entryDx=0;entryDy=0;" edge="1" parent="1" source="ujHl2vr5YIRKrzk3pM5S-23" target="ujHl2vr5YIRKrzk3pM5S-32">
          <mxGeometry relative="1" as="geometry" />
        </mxCell>
        <mxCell id="ujHl2vr5YIRKrzk3pM5S-166" style="edgeStyle=orthogonalEdgeStyle;rounded=0;orthogonalLoop=1;jettySize=auto;html=1;exitX=1;exitY=0.5;exitDx=0;exitDy=0;entryX=0;entryY=0.5;entryDx=0;entryDy=0;" edge="1" parent="1" source="ujHl2vr5YIRKrzk3pM5S-16" target="ujHl2vr5YIRKrzk3pM5S-31">
          <mxGeometry relative="1" as="geometry" />
        </mxCell>
        <mxCell id="ujHl2vr5YIRKrzk3pM5S-169" value="" style="endArrow=classic;html=1;rounded=0;exitX=1;exitY=0.5;exitDx=0;exitDy=0;entryX=0;entryY=0.5;entryDx=0;entryDy=0;" edge="1" parent="1" source="ujHl2vr5YIRKrzk3pM5S-2" target="ujHl2vr5YIRKrzk3pM5S-38">
          <mxGeometry width="50" height="50" relative="1" as="geometry">
            <mxPoint x="910" y="320" as="sourcePoint" />
            <mxPoint x="960" y="270" as="targetPoint" />
            <Array as="points">
              <mxPoint x="920" y="355" />
              <mxPoint x="920" y="560" />
              <mxPoint x="1240" y="560" />
              <mxPoint x="1240" y="630" />
            </Array>
          </mxGeometry>
        </mxCell>
        <mxCell id="ujHl2vr5YIRKrzk3pM5S-170" style="edgeStyle=orthogonalEdgeStyle;rounded=0;orthogonalLoop=1;jettySize=auto;html=1;exitX=1;exitY=0.5;exitDx=0;exitDy=0;" edge="1" parent="1" source="ujHl2vr5YIRKrzk3pM5S-29" target="ujHl2vr5YIRKrzk3pM5S-40">
          <mxGeometry relative="1" as="geometry" />
        </mxCell>
        <mxCell id="ujHl2vr5YIRKrzk3pM5S-172" value="" style="endArrow=classic;html=1;rounded=0;exitX=1;exitY=0.5;exitDx=0;exitDy=0;entryX=0;entryY=0.5;entryDx=0;entryDy=0;" edge="1" parent="1" source="ujHl2vr5YIRKrzk3pM5S-23" target="ujHl2vr5YIRKrzk3pM5S-39">
          <mxGeometry width="50" height="50" relative="1" as="geometry">
            <mxPoint x="930" y="520" as="sourcePoint" />
            <mxPoint x="980" y="470" as="targetPoint" />
            <Array as="points">
              <mxPoint x="1240" y="155" />
              <mxPoint x="1240" y="660" />
            </Array>
          </mxGeometry>
        </mxCell>
        <mxCell id="ujHl2vr5YIRKrzk3pM5S-173" style="edgeStyle=orthogonalEdgeStyle;rounded=0;orthogonalLoop=1;jettySize=auto;html=1;exitX=1;exitY=0.5;exitDx=0;exitDy=0;entryX=0;entryY=0.5;entryDx=0;entryDy=0;" edge="1" parent="1" source="ujHl2vr5YIRKrzk3pM5S-37" target="ujHl2vr5YIRKrzk3pM5S-141">
          <mxGeometry relative="1" as="geometry" />
        </mxCell>
        <mxCell id="ujHl2vr5YIRKrzk3pM5S-174" style="edgeStyle=orthogonalEdgeStyle;rounded=0;orthogonalLoop=1;jettySize=auto;html=1;exitX=1;exitY=0.5;exitDx=0;exitDy=0;entryX=0;entryY=0.5;entryDx=0;entryDy=0;" edge="1" parent="1" source="ujHl2vr5YIRKrzk3pM5S-29" target="ujHl2vr5YIRKrzk3pM5S-137">
          <mxGeometry relative="1" as="geometry" />
        </mxCell>
        <mxCell id="ujHl2vr5YIRKrzk3pM5S-175" style="edgeStyle=orthogonalEdgeStyle;rounded=0;orthogonalLoop=1;jettySize=auto;html=1;exitX=1;exitY=0.5;exitDx=0;exitDy=0;entryX=0;entryY=0.5;entryDx=0;entryDy=0;" edge="1" parent="1" source="ujHl2vr5YIRKrzk3pM5S-23" target="ujHl2vr5YIRKrzk3pM5S-136">
          <mxGeometry relative="1" as="geometry" />
        </mxCell>
        <mxCell id="ujHl2vr5YIRKrzk3pM5S-176" style="edgeStyle=orthogonalEdgeStyle;rounded=0;orthogonalLoop=1;jettySize=auto;html=1;exitX=1;exitY=0.5;exitDx=0;exitDy=0;entryX=0;entryY=0.5;entryDx=0;entryDy=0;" edge="1" parent="1" source="ujHl2vr5YIRKrzk3pM5S-16" target="ujHl2vr5YIRKrzk3pM5S-135">
          <mxGeometry relative="1" as="geometry" />
        </mxCell>
        <mxCell id="ujHl2vr5YIRKrzk3pM5S-178" style="edgeStyle=orthogonalEdgeStyle;rounded=0;orthogonalLoop=1;jettySize=auto;html=1;exitX=0;exitY=0.5;exitDx=0;exitDy=0;entryX=0;entryY=0.5;entryDx=0;entryDy=0;" edge="1" parent="1" source="ujHl2vr5YIRKrzk3pM5S-16" target="ujHl2vr5YIRKrzk3pM5S-77">
          <mxGeometry relative="1" as="geometry" />
        </mxCell>
        <mxCell id="ujHl2vr5YIRKrzk3pM5S-180" value="" style="endArrow=classic;html=1;rounded=0;exitX=0;exitY=0.5;exitDx=0;exitDy=0;entryX=0;entryY=0.5;entryDx=0;entryDy=0;" edge="1" parent="1" source="ujHl2vr5YIRKrzk3pM5S-29" target="ujHl2vr5YIRKrzk3pM5S-76">
          <mxGeometry width="50" height="50" relative="1" as="geometry">
            <mxPoint x="790" y="680" as="sourcePoint" />
            <mxPoint x="840" y="630" as="targetPoint" />
            <Array as="points">
              <mxPoint x="880" y="405" />
              <mxPoint x="880" y="970" />
            </Array>
          </mxGeometry>
        </mxCell>
        <mxCell id="ujHl2vr5YIRKrzk3pM5S-181" style="edgeStyle=orthogonalEdgeStyle;rounded=0;orthogonalLoop=1;jettySize=auto;html=1;exitX=0;exitY=0.5;exitDx=0;exitDy=0;entryX=0;entryY=0.5;entryDx=0;entryDy=0;" edge="1" parent="1" source="ujHl2vr5YIRKrzk3pM5S-23" target="ujHl2vr5YIRKrzk3pM5S-75">
          <mxGeometry relative="1" as="geometry" />
        </mxCell>
        <mxCell id="ujHl2vr5YIRKrzk3pM5S-182" style="edgeStyle=orthogonalEdgeStyle;rounded=0;orthogonalLoop=1;jettySize=auto;html=1;exitX=1;exitY=0.5;exitDx=0;exitDy=0;" edge="1" parent="1" source="ujHl2vr5YIRKrzk3pM5S-29" target="ujHl2vr5YIRKrzk3pM5S-149">
          <mxGeometry relative="1" as="geometry" />
        </mxCell>
        <mxCell id="ujHl2vr5YIRKrzk3pM5S-183" value="" style="endArrow=classic;html=1;rounded=0;exitX=1;exitY=0.5;exitDx=0;exitDy=0;entryX=0;entryY=0.5;entryDx=0;entryDy=0;" edge="1" parent="1" source="ujHl2vr5YIRKrzk3pM5S-23" target="ujHl2vr5YIRKrzk3pM5S-148">
          <mxGeometry width="50" height="50" relative="1" as="geometry">
            <mxPoint x="800" y="560" as="sourcePoint" />
            <mxPoint x="850" y="510" as="targetPoint" />
            <Array as="points">
              <mxPoint x="1210" y="155" />
              <mxPoint x="1210" y="430" />
              <mxPoint x="1520" y="430" />
              <mxPoint x="1520" y="375" />
            </Array>
          </mxGeometry>
        </mxCell>
        <mxCell id="ujHl2vr5YIRKrzk3pM5S-185" style="edgeStyle=orthogonalEdgeStyle;rounded=0;orthogonalLoop=1;jettySize=auto;html=1;exitX=1;exitY=0.5;exitDx=0;exitDy=0;entryX=0;entryY=0.5;entryDx=0;entryDy=0;" edge="1" parent="1" source="ujHl2vr5YIRKrzk3pM5S-93" target="ujHl2vr5YIRKrzk3pM5S-138">
          <mxGeometry relative="1" as="geometry" />
        </mxCell>
        <mxCell id="ujHl2vr5YIRKrzk3pM5S-186" style="edgeStyle=orthogonalEdgeStyle;rounded=0;orthogonalLoop=1;jettySize=auto;html=1;exitX=1;exitY=0.5;exitDx=0;exitDy=0;entryX=-0.009;entryY=0.73;entryDx=0;entryDy=0;entryPerimeter=0;" edge="1" parent="1" source="ujHl2vr5YIRKrzk3pM5S-132" target="ujHl2vr5YIRKrzk3pM5S-153">
          <mxGeometry relative="1" as="geometry" />
        </mxCell>
        <mxCell id="ujHl2vr5YIRKrzk3pM5S-187" style="edgeStyle=orthogonalEdgeStyle;rounded=0;orthogonalLoop=1;jettySize=auto;html=1;exitX=0;exitY=0.5;exitDx=0;exitDy=0;entryX=1;entryY=0.5;entryDx=0;entryDy=0;" edge="1" parent="1" source="ujHl2vr5YIRKrzk3pM5S-2" target="ujHl2vr5YIRKrzk3pM5S-59">
          <mxGeometry relative="1" as="geometry" />
        </mxCell>
        <mxCell id="ujHl2vr5YIRKrzk3pM5S-188" style="edgeStyle=orthogonalEdgeStyle;rounded=0;orthogonalLoop=1;jettySize=auto;html=1;exitX=0;exitY=0.5;exitDx=0;exitDy=0;entryX=0;entryY=0.5;entryDx=0;entryDy=0;" edge="1" parent="1" source="ujHl2vr5YIRKrzk3pM5S-101" target="ujHl2vr5YIRKrzk3pM5S-62">
          <mxGeometry relative="1" as="geometry" />
        </mxCell>
        <mxCell id="ujHl2vr5YIRKrzk3pM5S-190" value="" style="endArrow=classic;html=1;rounded=0;exitX=0;exitY=0.5;exitDx=0;exitDy=0;entryX=1;entryY=0.5;entryDx=0;entryDy=0;" edge="1" parent="1" source="ujHl2vr5YIRKrzk3pM5S-2" target="ujHl2vr5YIRKrzk3pM5S-83">
          <mxGeometry width="50" height="50" relative="1" as="geometry">
            <mxPoint x="800" y="560" as="sourcePoint" />
            <mxPoint x="850" y="510" as="targetPoint" />
            <Array as="points">
              <mxPoint x="640" y="355" />
              <mxPoint x="640" y="870" />
            </Array>
          </mxGeometry>
        </mxCell>
        <mxCell id="ujHl2vr5YIRKrzk3pM5S-192" value="" style="endArrow=classic;html=1;rounded=0;exitX=0;exitY=0.5;exitDx=0;exitDy=0;entryX=1;entryY=0.5;entryDx=0;entryDy=0;" edge="1" parent="1" source="ujHl2vr5YIRKrzk3pM5S-29" target="ujHl2vr5YIRKrzk3pM5S-113">
          <mxGeometry width="50" height="50" relative="1" as="geometry">
            <mxPoint x="800" y="120" as="sourcePoint" />
            <mxPoint x="850" y="70" as="targetPoint" />
            <Array as="points">
              <mxPoint x="880" y="405" />
              <mxPoint x="880" y="80" />
              <mxPoint x="720" y="80" />
              <mxPoint x="720" y="-225" />
            </Array>
          </mxGeometry>
        </mxCell>
        <mxCell id="ujHl2vr5YIRKrzk3pM5S-195" value="" style="endArrow=classic;html=1;rounded=0;exitX=0;exitY=0.5;exitDx=0;exitDy=0;entryX=0;entryY=0.5;entryDx=0;entryDy=0;" edge="1" parent="1" source="ujHl2vr5YIRKrzk3pM5S-29" target="ujHl2vr5YIRKrzk3pM5S-124">
          <mxGeometry width="50" height="50" relative="1" as="geometry">
            <mxPoint x="800" y="120" as="sourcePoint" />
            <mxPoint x="850" y="70" as="targetPoint" />
            <Array as="points">
              <mxPoint x="880" y="405" />
              <mxPoint x="880" y="80" />
              <mxPoint x="720" y="80" />
              <mxPoint x="720" y="-225" />
            </Array>
          </mxGeometry>
        </mxCell>
        <mxCell id="ujHl2vr5YIRKrzk3pM5S-196" style="edgeStyle=orthogonalEdgeStyle;rounded=0;orthogonalLoop=1;jettySize=auto;html=1;exitX=0;exitY=0.5;exitDx=0;exitDy=0;entryX=1;entryY=0.5;entryDx=0;entryDy=0;" edge="1" parent="1" source="ujHl2vr5YIRKrzk3pM5S-93" target="ujHl2vr5YIRKrzk3pM5S-130">
          <mxGeometry relative="1" as="geometry" />
        </mxCell>
        <mxCell id="ujHl2vr5YIRKrzk3pM5S-198" value="" style="endArrow=classic;html=1;rounded=0;exitX=0;exitY=0.5;exitDx=0;exitDy=0;entryX=1;entryY=0.5;entryDx=0;entryDy=0;" edge="1" parent="1" source="ujHl2vr5YIRKrzk3pM5S-16" target="ujHl2vr5YIRKrzk3pM5S-111">
          <mxGeometry width="50" height="50" relative="1" as="geometry">
            <mxPoint x="800" y="560" as="sourcePoint" />
            <mxPoint x="850" y="510" as="targetPoint" />
            <Array as="points">
              <mxPoint x="880" y="645" />
              <mxPoint x="880" y="80" />
              <mxPoint x="720" y="80" />
              <mxPoint x="720" y="-285" />
            </Array>
          </mxGeometry>
        </mxCell>
        <mxCell id="ujHl2vr5YIRKrzk3pM5S-200" value="" style="endArrow=classic;html=1;rounded=0;exitX=0;exitY=0.5;exitDx=0;exitDy=0;entryX=0;entryY=0.5;entryDx=0;entryDy=0;" edge="1" parent="1" source="ujHl2vr5YIRKrzk3pM5S-16" target="ujHl2vr5YIRKrzk3pM5S-122">
          <mxGeometry width="50" height="50" relative="1" as="geometry">
            <mxPoint x="810" y="590" as="sourcePoint" />
            <mxPoint x="860" y="540" as="targetPoint" />
            <Array as="points">
              <mxPoint x="880" y="645" />
              <mxPoint x="880" y="80" />
              <mxPoint x="720" y="80" />
              <mxPoint x="720" y="-285" />
            </Array>
          </mxGeometry>
        </mxCell>
        <mxCell id="ujHl2vr5YIRKrzk3pM5S-201" style="edgeStyle=orthogonalEdgeStyle;rounded=0;orthogonalLoop=1;jettySize=auto;html=1;exitX=0;exitY=0.5;exitDx=0;exitDy=0;entryX=1;entryY=0.5;entryDx=0;entryDy=0;" edge="1" parent="1" source="ujHl2vr5YIRKrzk3pM5S-23" target="ujHl2vr5YIRKrzk3pM5S-112">
          <mxGeometry relative="1" as="geometry" />
        </mxCell>
        <mxCell id="ujHl2vr5YIRKrzk3pM5S-202" style="edgeStyle=orthogonalEdgeStyle;rounded=0;orthogonalLoop=1;jettySize=auto;html=1;exitX=0;exitY=0.5;exitDx=0;exitDy=0;entryX=0;entryY=0.5;entryDx=0;entryDy=0;" edge="1" parent="1" source="ujHl2vr5YIRKrzk3pM5S-23" target="ujHl2vr5YIRKrzk3pM5S-123">
          <mxGeometry relative="1" as="geometry" />
        </mxCell>
        <mxCell id="ujHl2vr5YIRKrzk3pM5S-205" value="" style="endArrow=classic;html=1;rounded=0;exitX=0;exitY=0.5;exitDx=0;exitDy=0;entryX=0;entryY=0.5;entryDx=0;entryDy=0;" edge="1" parent="1" source="ujHl2vr5YIRKrzk3pM5S-60" target="ujHl2vr5YIRKrzk3pM5S-67">
          <mxGeometry width="50" height="50" relative="1" as="geometry">
            <mxPoint x="720" y="820" as="sourcePoint" />
            <mxPoint x="770" y="770" as="targetPoint" />
            <Array as="points">
              <mxPoint x="310" y="535" />
              <mxPoint x="310" y="1160" />
              <mxPoint x="1160" y="1160" />
              <mxPoint x="1160" y="985" />
            </Array>
          </mxGeometry>
        </mxCell>
        <mxCell id="ujHl2vr5YIRKrzk3pM5S-206" style="edgeStyle=orthogonalEdgeStyle;rounded=0;orthogonalLoop=1;jettySize=auto;html=1;exitX=1;exitY=0.5;exitDx=0;exitDy=0;" edge="1" parent="1" source="ujHl2vr5YIRKrzk3pM5S-37" target="ujHl2vr5YIRKrzk3pM5S-68">
          <mxGeometry relative="1" as="geometry" />
        </mxCell>
        <mxCell id="ujHl2vr5YIRKrzk3pM5S-207" value="" style="endArrow=classic;html=1;rounded=0;exitX=1;exitY=0.5;exitDx=0;exitDy=0;entryX=0;entryY=0.5;entryDx=0;entryDy=0;" edge="1" parent="1" source="ujHl2vr5YIRKrzk3pM5S-2" target="ujHl2vr5YIRKrzk3pM5S-66">
          <mxGeometry width="50" height="50" relative="1" as="geometry">
            <mxPoint x="590" y="750" as="sourcePoint" />
            <mxPoint x="640" y="700" as="targetPoint" />
            <Array as="points">
              <mxPoint x="880" y="355" />
              <mxPoint x="880" y="800" />
              <mxPoint x="1160" y="800" />
              <mxPoint x="1160" y="955" />
            </Array>
          </mxGeometry>
        </mxCell>
        <mxCell id="ujHl2vr5YIRKrzk3pM5S-212" value="&lt;font style=&quot;font-size: 16px;&quot;&gt;non_working_date&lt;/font&gt;" style="swimlane;fontStyle=0;childLayout=stackLayout;horizontal=1;startSize=30;horizontalStack=0;resizeParent=1;resizeParentMax=0;resizeLast=0;collapsible=1;marginBottom=0;whiteSpace=wrap;html=1;" vertex="1" parent="1">
          <mxGeometry x="1350" y="-320" width="150" height="120" as="geometry" />
        </mxCell>
        <mxCell id="ujHl2vr5YIRKrzk3pM5S-213" value="&lt;font style=&quot;font-size: 14px;&quot;&gt;id&lt;/font&gt;" style="text;strokeColor=none;fillColor=none;align=left;verticalAlign=middle;spacingLeft=4;spacingRight=4;overflow=hidden;points=[[0,0.5],[1,0.5]];portConstraint=eastwest;rotatable=0;whiteSpace=wrap;html=1;" vertex="1" parent="ujHl2vr5YIRKrzk3pM5S-212">
          <mxGeometry y="30" width="150" height="30" as="geometry" />
        </mxCell>
        <mxCell id="ujHl2vr5YIRKrzk3pM5S-214" value="&lt;font style=&quot;font-size: 14px;&quot;&gt;reason&lt;/font&gt;" style="text;strokeColor=none;fillColor=none;align=left;verticalAlign=middle;spacingLeft=4;spacingRight=4;overflow=hidden;points=[[0,0.5],[1,0.5]];portConstraint=eastwest;rotatable=0;whiteSpace=wrap;html=1;" vertex="1" parent="ujHl2vr5YIRKrzk3pM5S-212">
          <mxGeometry y="60" width="150" height="30" as="geometry" />
        </mxCell>
        <mxCell id="ujHl2vr5YIRKrzk3pM5S-215" value="&lt;span style=&quot;font-size: 14px;&quot;&gt;date&lt;/span&gt;" style="text;strokeColor=none;fillColor=none;align=left;verticalAlign=middle;spacingLeft=4;spacingRight=4;overflow=hidden;points=[[0,0.5],[1,0.5]];portConstraint=eastwest;rotatable=0;whiteSpace=wrap;html=1;" vertex="1" parent="ujHl2vr5YIRKrzk3pM5S-212">
          <mxGeometry y="90" width="150" height="30" as="geometry" />
        </mxCell>
      </root>
    </mxGraphModel>
  </diagram>
</mxfile>
